# This file uses centimeters as units for non-parametric coordinates.

mtllib book.mtl
g default
v 1.500000 0.000000 0.500000
v 1.500000 4.000000 0.500000
v 1.500000 4.000000 -0.500000
v 1.500000 0.000000 -0.500000
v -1.500000 0.000000 0.400010
v -1.400010 0.000000 0.500000
v -1.450005 0.000000 0.486604
v -1.486604 0.000000 0.450005
v -1.500000 4.000000 0.400010
v -1.486604 4.000000 0.450005
v -1.450005 4.000000 0.486604
v -1.400010 4.000000 0.500000
v -1.450005 4.000000 -0.486604
v -1.486604 4.000000 -0.450005
v -1.500000 4.000000 -0.400010
v -1.400010 4.000000 -0.500000
v -1.500000 0.000000 -0.400010
v -1.486604 0.000000 -0.450005
v -1.450005 0.000000 -0.486604
v -1.400010 0.000000 -0.500000
v -1.406943 4.000000 0.552662
v -1.406943 0.000000 0.552662
v 1.500000 0.000000 0.553575
v 1.500000 4.000000 0.553575
v -1.406943 0.000000 -0.552662
v -1.406943 4.000000 -0.552662
v 1.500000 4.000000 -0.553575
v 1.500000 0.000000 -0.553575
v -1.552662 4.000000 -0.406943
v -1.552662 0.000000 -0.406943
v -1.552662 0.000000 0.406943
v -1.552662 4.000000 0.406943
v -1.531420 0.000000 0.475880
v -1.531420 4.000000 0.475880
v -1.475880 0.000000 0.531420
v -1.475880 4.000000 0.531420
v -1.531420 4.000000 -0.475880
v -1.531420 0.000000 -0.475880
v -1.475880 4.000000 -0.531420
v -1.475880 0.000000 -0.531420
v 1.438383 0.043635 -0.500000
v 1.438383 0.043635 0.500000
v 1.438383 3.956365 -0.500000
v 1.438383 3.956365 0.500000
v -1.486604 3.956365 -0.450005
v -1.450005 3.956365 -0.486604
v -1.500000 3.956365 -0.400010
v -1.500000 3.956365 0.400010
v -1.486604 3.956365 0.450005
v -1.450005 3.956365 0.486604
v -1.400010 3.956365 0.500000
v -1.400010 3.956365 -0.500000
v -1.400010 0.043635 0.500000
v -1.450005 0.043635 0.486604
v -1.486604 0.043635 0.450005
v -1.500000 0.043635 0.400010
v -1.500000 0.043635 -0.400010
v -1.486604 0.043635 -0.450005
v -1.450005 0.043635 -0.486604
v -1.400010 0.043635 -0.500000
vt 0.512061 0.576736
vt 0.959542 0.958185
vt 0.953153 0.587387
vt 0.245153 0.583095
vt 0.522863 0.957794
vt 0.567186 0.588671
vt 0.642645 0.954733
vt 0.639929 0.588105
vt 0.244894 0.960255
vt 0.569900 0.955299
vt 0.691206 0.965662
vt 0.689561 0.587003
vt 0.650449 0.587364
vt 0.645491 0.588157
vt 0.648211 0.954673
vt 0.239854 0.960437
vt 0.559381 0.956041
vt 0.564339 0.955248
vt 0.561619 0.588731
vt 0.686148 0.965870
vt 0.245063 0.587972
vt 0.512302 0.581716
vt 0.517882 0.957863
vt 0.244717 0.955381
vt 0.689494 0.591900
vt 0.953174 0.592249
vt 0.954682 0.958207
vt 0.691005 0.960769
vt 0.567222 0.593288
vt 0.639936 0.592769
vt 0.642608 0.950117
vt 0.569894 0.950635
vt 0.646346 0.592721
vt 0.649019 0.950065
vt 0.238369 0.587749
vt 0.238019 0.955651
vt 0.563484 0.950684
vt 0.560811 0.593339
vt 0.682773 0.591709
vt 0.684281 0.961074
vt 0.075940 0.470928
vt 0.947535 0.583419
vt 0.137333 0.234188
vt 0.506218 0.572818
vt 0.078200 0.059058
vt 0.564876 0.959207
vt 0.569971 0.959188
vt 0.642628 0.958622
vt 0.647713 0.958643
vt 0.240045 0.964461
vt 0.244850 0.964313
vt 0.689452 0.582931
vt 0.245065 0.579039
vt 0.649615 0.583553
vt 0.644954 0.584197
vt 0.639859 0.584217
vt 0.567202 0.584782
vt 0.562117 0.584761
vt 0.686360 0.969909
vt 0.691183 0.969736
vt 0.965116 0.954169
vt 0.129819 0.649067
vt 0.132850 0.648266
vt 0.135074 0.646058
vt 0.135896 0.643033
vt 0.136500 0.471141
vt 0.560215 0.959852
vt 0.077378 0.062083
vt 0.076773 0.233975
vt 0.137937 0.062296
vt 0.528531 0.953613
vt 0.137137 0.059265
vt 0.134928 0.057041
vt 0.131903 0.056219
vt 0.083454 0.056049
vt 0.080424 0.056849
vt 0.075336 0.642820
vt 0.076137 0.645850
vt 0.078345 0.648075
vt 0.081370 0.648897
vt 0.556610 0.588193
vt 0.557301 0.584248
vt 0.240129 0.582971
vt 0.240249 0.578910
vt 0.653219 0.955211
vt 0.652529 0.959157
vt 0.684516 0.586903
vt 0.684615 0.582825
vt 0.556504 0.951416
vt 0.553847 0.592725
vt 0.653325 0.591988
vt 0.655983 0.950680
vt 0.517708 0.962846
vt 0.511797 0.966847
vt 0.517284 0.581652
vt 0.523074 0.585679
vt 0.958034 0.592231
vt 0.963641 0.596201
vt 0.954701 0.963069
vt 0.949118 0.967083
vn -0.007445 0.000000 0.999972
vn -0.007445 0.000000 0.999972
vn -0.000314 0.000000 1.000000
vn -0.000314 0.000000 1.000000
vn -0.007445 0.000000 -0.999972
vn -0.007445 0.000000 -0.999972
vn -0.000314 0.000000 -1.000000
vn -0.000314 0.000000 -1.000000
vn 1.000000 0.000000 0.000000
vn 1.000000 0.000000 0.000000
vn 1.000000 0.000000 0.000000
vn 1.000000 0.000000 0.000000
vn -0.999711 0.000000 -0.024055
vn -0.999711 0.000000 -0.024055
vn -0.999711 0.000000 0.024055
vn -0.999711 0.000000 0.024055
vn -0.851105 0.000000 0.524996
vn -0.851105 0.000000 0.524996
vn -0.707107 0.000000 0.707106
vn -0.707107 0.000000 0.707106
vn -0.294475 0.000000 0.955659
vn -0.294475 0.000000 0.955659
vn -0.851105 0.000000 -0.524996
vn -0.851105 0.000000 -0.524996
vn -0.707107 0.000000 -0.707106
vn -0.707107 0.000000 -0.707106
vn -0.294475 0.000000 -0.955659
vn -0.294475 0.000000 -0.955659
vn 0.000000 1.000000 -0.000000
vn 0.000000 1.000000 -0.000000
vn 0.000000 1.000000 -0.000000
vn 0.000000 1.000000 -0.000000
vn 0.000000 1.000000 -0.000000
vn 0.000000 1.000000 -0.000000
vn 0.000000 1.000000 -0.000000
vn 0.000000 1.000000 -0.000000
vn 0.000000 1.000000 -0.000000
vn 0.000000 1.000000 -0.000000
vn 0.000000 -1.000000 0.000000
vn 0.000000 -1.000000 0.000000
vn 0.000000 -1.000000 0.000000
vn 0.000000 -1.000000 0.000000
vn 0.000000 -1.000000 0.000000
vn 0.000000 -1.000000 0.000000
vn 0.000000 -1.000000 0.000000
vn 0.000000 -1.000000 0.000000
vn 0.000000 -1.000000 0.000000
vn 0.000000 -1.000000 0.000000
vn 0.000000 -1.000000 0.000002
vn 0.000000 -1.000000 0.000002
vn 0.000000 -1.000000 0.000002
vn 0.000000 -1.000000 0.000002
vn 1.000000 0.000000 0.000000
vn 1.000000 0.000000 0.000000
vn 1.000000 0.000000 0.000000
vn 1.000000 0.000000 0.000000
vn 0.000000 1.000000 0.000003
vn 0.000000 1.000000 0.000003
vn 0.000000 1.000000 0.000003
vn 0.000000 1.000000 0.000003
vn 0.000000 1.000000 -0.000002
vn 0.000000 1.000000 -0.000002
vn 0.000000 1.000000 -0.000002
vn 0.000000 1.000000 -0.000002
vn 1.000000 0.000000 0.000000
vn 1.000000 0.000000 0.000000
vn 1.000000 0.000000 0.000000
vn 1.000000 0.000000 0.000000
vn 0.000000 -1.000000 -0.000003
vn 0.000000 -1.000000 -0.000003
vn 0.000000 -1.000000 -0.000003
vn 0.000000 -1.000000 -0.000003
vn 0.000000 -1.000000 0.000000
vn 0.000000 -1.000000 0.000000
vn 0.000000 -1.000000 0.000000
vn 0.000000 -1.000000 0.000000
vn 0.000000 1.000000 0.000000
vn 0.000000 1.000000 0.000000
vn 0.000000 1.000000 0.000000
vn 0.000000 1.000000 0.000000
vn 0.000000 -1.000000 0.000000
vn 0.000000 -1.000000 0.000000
vn 0.000000 1.000000 0.000000
vn 0.000000 1.000000 0.000000
vn 0.000000 -1.000000 0.000000
vn 0.000000 -1.000000 0.000000
vn 0.000000 1.000000 0.000000
vn 0.000000 1.000000 0.000000
vn 0.000000 1.000000 0.000000
vn 0.000000 1.000000 0.000000
vn 0.000000 -1.000000 0.000000
vn 0.000000 -1.000000 0.000000
vn 0.000000 1.000000 0.000000
vn 0.000000 1.000000 0.000000
vn 0.000000 -1.000000 0.000000
vn 0.000000 -1.000000 0.000000
vn -0.000000 0.000000 1.000000
vn -0.000000 0.000000 1.000000
vn -0.000000 0.000000 1.000000
vn -0.000000 0.000000 1.000000
vn -0.000000 0.000000 -1.000000
vn -0.000000 0.000000 -1.000000
vn -0.000000 0.000000 -1.000000
vn -0.000000 0.000000 -1.000000
vn 0.707108 0.000000 0.707106
vn 0.707108 0.000000 0.707106
vn 0.707108 0.000000 0.707106
vn 0.707108 0.000000 0.707106
vn 0.965926 0.000000 0.258819
vn 0.965926 0.000000 0.258819
vn 0.965926 0.000000 0.258819
vn 0.965926 0.000000 0.258819
vn 1.000000 0.000000 0.000000
vn 1.000000 0.000000 0.000000
vn 1.000000 0.000000 0.000000
vn 1.000000 0.000000 0.000000
vn 0.965926 0.000000 -0.258819
vn 0.965926 0.000000 -0.258819
vn 0.965926 0.000000 -0.258819
vn 0.965926 0.000000 -0.258819
vn 0.707108 0.000000 -0.707106
vn 0.707108 0.000000 -0.707106
vn 0.707108 0.000000 -0.707106
vn 0.707108 0.000000 -0.707106
vn 0.258819 0.000000 -0.965926
vn 0.258819 0.000000 -0.965926
vn 0.258819 0.000000 -0.965926
vn 0.258819 0.000000 -0.965926
vn 0.000000 0.000000 -1.000000
vn 0.000000 0.000000 -1.000000
vn 0.000000 0.000000 -1.000000
vn 0.000000 0.000000 -1.000000
vn 0.000000 0.000000 1.000000
vn 0.000000 0.000000 1.000000
vn 0.000000 0.000000 1.000000
vn 0.000000 0.000000 1.000000
vn 0.258819 0.000000 0.965926
vn 0.258819 0.000000 0.965926
vn 0.258819 0.000000 0.965926
vn 0.258819 0.000000 0.965926
vn 0.000000 0.000000 -1.000000
vn 0.000000 0.000000 -1.000000
vn 0.000000 0.000000 -1.000000
vn 0.000000 0.000000 -1.000000
vn 0.258819 0.000000 -0.965926
vn 0.258819 0.000000 -0.965926
vn 0.258819 0.000000 -0.965926
vn 0.258819 0.000000 -0.965926
vn 0.707108 0.000000 -0.707106
vn 0.707108 0.000000 -0.707106
vn 0.707108 0.000000 -0.707106
vn 0.707108 0.000000 -0.707106
vn 0.965926 0.000000 -0.258819
vn 0.965926 0.000000 -0.258819
vn 0.965926 0.000000 -0.258819
vn 0.965926 0.000000 -0.258819
vn 1.000000 0.000000 0.000000
vn 1.000000 0.000000 0.000000
vn 1.000000 0.000000 0.000000
vn 1.000000 0.000000 0.000000
vn 0.965926 0.000000 0.258819
vn 0.965926 0.000000 0.258819
vn 0.965926 0.000000 0.258819
vn 0.965926 0.000000 0.258819
vn 0.707108 0.000000 0.707106
vn 0.707108 0.000000 0.707106
vn 0.707108 0.000000 0.707106
vn 0.707108 0.000000 0.707106
vn 0.258819 0.000000 0.965926
vn 0.258819 0.000000 0.965926
vn 0.258819 0.000000 0.965926
vn 0.258819 0.000000 0.965926
vn 0.000000 0.000000 1.000000
vn 0.000000 0.000000 1.000000
vn 0.000000 0.000000 1.000000
vn 0.000000 0.000000 1.000000
s 1
g pCube1
usemtl lambert2SG
f 21/24/1 22/21/2 23/22/3 24/23/4
s 2
f 25/28/5 26/25/6 27/26/7 28/27/8
s off
f 42/66/9 41/41/10 43/69/11 44/43/12
s 3
f 29/32/13 30/29/14 31/30/15 32/31/16
f 31/30/15 33/33/17 34/34/18 32/31/16
f 33/33/17 35/91/19 36/92/20 34/34/18
s 1
f 35/35/21 22/21/2 21/24/1 36/36/22
s 3
f 29/32/13 37/37/23 38/38/24 30/29/14
f 37/37/23 39/89/25 40/90/26 38/38/24
s 2
f 39/39/27 26/25/6 25/28/5 40/40/28
s off
f 46/45/29 45/76/30 47/75/31 48/74/32 49/73/33 50/72/34 51/70/35 44/43/36 43/69/37 52/68/38
f 41/41/39 42/66/40 53/65/41 54/64/42 55/63/43 56/62/44 57/80/45 58/79/46 59/78/47 60/77/48
s 4
f 6/4/49 1/1/50 23/22/51 22/21/52
s off
f 1/95/53 2/5/54 24/23/55 23/22/56
s 5
f 2/93/57 12/9/58 21/24/59 24/23/60
f 16/12/61 3/3/62 27/26/63 26/25/64
s off
f 3/97/65 4/2/66 28/27/67 27/26/68
s 4
f 4/99/69 20/11/70 25/28/71 28/27/72
f 17/6/73 5/8/74 31/30/75 30/29/76
s 5
f 9/7/77 15/10/78 29/32/79 32/31/80
s 4
f 5/8/74 8/14/81 33/33/82 31/30/75
s 5
f 10/15/83 9/7/77 32/31/80 34/34/84
s 4
f 8/14/81 7/13/85 35/91/86 33/33/82
s 5
f 11/85/87 10/15/83 34/34/84 36/92/88
s 4
f 7/83/85 6/4/49 22/21/52 35/35/86
s 5
f 12/9/58 11/16/87 36/36/88 21/24/59
f 15/10/78 14/18/89 37/37/90 29/32/79
s 4
f 18/19/91 17/6/73 30/29/76 38/38/92
s 5
f 14/18/89 13/17/93 39/89/94 37/37/90
s 4
f 19/81/95 18/19/91 38/38/92 40/90/96
s 5
f 13/87/93 16/12/61 26/25/64 39/39/94
s 4
f 20/11/70 19/20/95 40/40/96 25/28/71
s off
f 4/2/97 3/97/98 43/98/99 41/61/100
f 2/5/101 1/95/102 42/96/103 44/71/104
f 13/17/105 14/18/106 45/46/107 46/67/108
f 14/18/109 15/10/110 47/47/111 45/46/112
f 15/10/113 9/7/114 48/48/115 47/47/116
f 9/7/117 10/15/118 49/49/119 48/48/120
f 10/15/121 11/85/122 50/86/123 49/49/124
f 11/16/125 12/9/126 51/51/127 50/50/128
f 12/9/129 2/93/130 44/94/131 51/51/132
f 3/3/133 16/12/134 52/52/135 43/42/136
f 16/12/137 13/87/138 46/88/139 52/52/140
f 1/1/141 6/4/142 53/53/143 42/44/144
f 6/4/145 7/83/146 54/84/147 53/53/148
f 7/13/149 8/14/150 55/55/151 54/54/152
f 8/14/153 5/8/154 56/56/155 55/55/156
f 5/8/157 17/6/158 57/57/159 56/56/160
f 17/6/161 18/19/162 58/58/163 57/57/164
f 18/19/165 19/81/166 59/82/167 58/58/168
f 19/20/169 20/11/170 60/60/171 59/59/172
f 20/11/173 4/99/174 41/100/175 60/60/176
